<svg xmlns="http://www.w3.org/2000/svg" width="1400" height="900" viewBox="0 0 1400 900">
  <defs>
    <style>
      .title{font:700 70px "PingFang SC","Hiragino Sans GB","Microsoft YaHei",sans-serif;fill:#3b2f2f}
      .subtitle{font:600 30px "PingFang SC","Hiragino Sans GB","Microsoft YaHei",sans-serif;fill:#5f7a61}
      .label{font:700 22px "PingFang SC","Hiragino Sans GB","Microsoft YaHei",sans-serif;fill:#3b2f2f}
      .body{font:500 24px "PingFang SC","Hiragino Sans GB","Microsoft YaHei",sans-serif;fill:#5a504d}
      .small{font:500 19px "PingFang SC","Hiragino Sans GB","Microsoft YaHei",sans-serif;fill:#5a504d}
    </style>
    <filter id="shadow" x="-20%" y="-20%" width="140%" height="140%">
      <feDropShadow dx="0" dy="10" stdDeviation="12" flood-color="#a28f7d" flood-opacity="0.22"/>
    </filter>
    <filter id="paper" x="-10%" y="-10%" width="120%" height="120%">
      <feTurbulence type="fractalNoise" baseFrequency="0.85" numOctaves="2" stitchTiles="stitch"/>
      <feColorMatrix type="matrix" values="1 0 0 0 0  0 1 0 0 0  0 0 1 0 0  0 0 0 0.03 0"/>
    </filter>
  </defs>

  <rect width="1400" height="900" fill="#f5f0e6"/>
  <rect width="1400" height="900" fill="#ffffff" opacity="0.2" filter="url(#paper)"/>
  <circle cx="1226" cy="144" r="96" fill="#f8dfab"/>
  <circle cx="1276" cy="126" r="28" fill="#f2c14e" opacity="0.9"/>

  <rect x="78" y="64" width="152" height="46" rx="23" fill="#5f7a61"/>
  <text x="118" y="95" class="label" fill="#f5f0e6">封面图</text>
  <text x="88" y="182" class="title">离职的同事没有走</text>
  <text x="90" y="244" class="subtitle">他只是被写进了 skill 里</text>

  <g transform="rotate(-5 1148 204)">
    <rect x="1048" y="144" width="270" height="112" rx="18" fill="#fff9f1" stroke="#3b2f2f" stroke-width="4"/>
    <text x="1084" y="194" class="label">人离开了</text>
    <text x="1084" y="228" class="body">方法没有离开</text>
  </g>

  <g filter="url(#shadow)">
    <rect x="70" y="300" width="1260" height="538" rx="36" fill="#f9f4ec"/>
  </g>

  <g opacity="0.72">
    <rect x="196" y="600" width="214" height="34" rx="17" fill="#8d6e63"/>
    <rect x="250" y="484" width="102" height="110" rx="18" fill="#dcc1a2" stroke="#8d6e63" stroke-width="4"/>
    <rect x="232" y="420" width="136" height="88" rx="22" fill="#e7cfb2" stroke="#8d6e63" stroke-width="4"/>
    <path d="M254 636l-24 52" stroke="#8d6e63" stroke-width="10" stroke-linecap="round"/>
    <path d="M350 636l24 52" stroke="#8d6e63" stroke-width="10" stroke-linecap="round"/>
    <path d="M300 636v58" stroke="#8d6e63" stroke-width="10" stroke-linecap="round"/>
    <circle cx="224" cy="696" r="14" fill="#8d6e63"/>
    <circle cx="300" cy="708" r="14" fill="#8d6e63"/>
    <circle cx="376" cy="696" r="14" fill="#8d6e63"/>
  </g>

  <rect x="202" y="638" width="1002" height="38" rx="19" fill="#8d6e63"/>
  <rect x="514" y="428" width="444" height="228" rx="22" fill="#e8d6bc" stroke="#8d6e63" stroke-width="4"/>
  <rect x="544" y="456" width="384" height="182" rx="18" fill="#2f333b"/>
  <rect x="572" y="482" width="330" height="130" rx="14" fill="#fffaf3"/>
  <rect x="602" y="506" width="150" height="24" rx="12" fill="#d66b2d"/>
  <rect x="602" y="548" width="176" height="15" rx="8" fill="#5f7a61"/>
  <rect x="602" y="574" width="210" height="15" rx="8" fill="#5f7a61"/>
  <rect x="602" y="600" width="188" height="15" rx="8" fill="#5f7a61"/>
  <text x="622" y="523" class="label" fill="#fffaf3">SKILL.md</text>
  <text x="598" y="446" class="small" fill="#3b2f2f">桌上电脑还亮着</text>
  <text x="608" y="558" class="small">核验</text>
  <text x="608" y="584" class="small">改写</text>
  <text x="608" y="610" class="small">做图</text>

  <g transform="rotate(-8 470 398)">
    <rect x="392" y="328" width="170" height="116" rx="18" fill="#f2c14e" stroke="#c69222" stroke-width="4"/>
    <text x="444" y="378" class="label">核验</text>
    <text x="430" y="416" class="small">先看官方源</text>
  </g>
  <g transform="rotate(7 994 372)">
    <rect x="912" y="306" width="170" height="116" rx="18" fill="#f0bb62" stroke="#c67f1c" stroke-width="4"/>
    <text x="964" y="356" class="label">改写</text>
    <text x="950" y="394" class="small">先搭主结构</text>
  </g>
  <g transform="rotate(-5 1030 566)">
    <rect x="948" y="502" width="170" height="116" rx="18" fill="#b8d4c2" stroke="#5f7a61" stroke-width="4"/>
    <text x="1000" y="552" class="label">做图</text>
    <text x="986" y="590" class="small">配图也有手册</text>
  </g>
  <g transform="rotate(6 344 566)">
    <rect x="262" y="500" width="170" height="116" rx="18" fill="#fff0c9" stroke="#c69222" stroke-width="4"/>
    <text x="316" y="550" class="label">发版</text>
    <text x="296" y="588" class="small">标题封面摘要</text>
  </g>

  <path d="M1038 624c-14-78-72-136-146-136-66 0-122 44-144 106-44 10-76 50-76 98 0 58 48 106 106 106h250c66 0 120-54 120-120 0-28-10-54-28-74-20 20-48 28-82 20z" fill="#8f6d55"/>
  <ellipse cx="900" cy="586" rx="76" ry="62" fill="#a27d64"/>
  <ellipse cx="1004" cy="576" rx="78" ry="62" fill="#a27d64"/>
  <ellipse cx="960" cy="680" rx="150" ry="114" fill="#9f7a62"/>
  <ellipse cx="954" cy="704" rx="108" ry="84" fill="#f2d6ae"/>
  <circle cx="908" cy="650" r="12" fill="#2f333b"/>
  <circle cx="1004" cy="648" r="12" fill="#2f333b"/>
  <path d="M924 694c18 16 42 24 66 0" fill="none" stroke="#3b2f2f" stroke-width="6" stroke-linecap="round"/>
  <rect x="926" y="666" width="20" height="34" rx="8" fill="#fff9f1"/>
  <rect x="964" y="666" width="20" height="34" rx="8" fill="#fff9f1"/>
  <path d="M860 496c22-40 52-56 80-48-18 24-26 48-24 74-22 0-40-8-56-26z" fill="#8f6d55"/>
  <path d="M1014 500c26-30 58-38 82-24-26 18-40 40-44 66-16-8-28-20-38-42z" fill="#8f6d55"/>
  <rect x="1048" y="630" width="130" height="28" rx="14" fill="#5f7a61"/>
  <rect x="1184" y="624" width="78" height="38" rx="19" fill="#3b2f2f"/>
  <text x="1072" y="649" class="small" fill="#fffaf3">整理进手册</text>
  <text x="1206" y="650" class="small" fill="#fffaf3">工坊</text>

  <g transform="rotate(-5 1128 742)">
    <rect x="1030" y="684" width="250" height="116" rx="18" fill="#fff9f1" stroke="#5f7a61" stroke-width="4"/>
    <text x="1062" y="732" class="label">经验没有被带走</text>
    <text x="1062" y="768" class="small">只是被收成一张会复用的卡</text>
  </g>
</svg>