<svg xmlns="http://www.w3.org/2000/svg" width="1400" height="900" viewBox="0 0 1400 900">
  <defs>
    <style>
      .title{font:700 62px "PingFang SC","Hiragino Sans GB","Microsoft YaHei",sans-serif;fill:#3b2f2f}
      .subtitle{font:600 29px "PingFang SC","Hiragino Sans GB","Microsoft YaHei",sans-serif;fill:#5f7a61}
      .head{font:700 30px "PingFang SC","Hiragino Sans GB","Microsoft YaHei",sans-serif;fill:#3b2f2f}
      .label{font:700 22px "PingFang SC","Hiragino Sans GB","Microsoft YaHei",sans-serif;fill:#3b2f2f}
      .body{font:500 21px "PingFang SC","Hiragino Sans GB","Microsoft YaHei",sans-serif;fill:#5c514e}
      .cap{font:700 24px "PingFang SC","Hiragino Sans GB","Microsoft YaHei",sans-serif;fill:#fffaf3}
    </style>
    <filter id="shadow" x="-20%" y="-20%" width="140%" height="140%">
      <feDropShadow dx="0" dy="8" stdDeviation="10" flood-color="#b5a189" flood-opacity="0.22"/>
    </filter>
    <filter id="paper" x="-10%" y="-10%" width="120%" height="120%">
      <feTurbulence type="fractalNoise" baseFrequency="0.85" numOctaves="2" stitchTiles="stitch"/>
      <feColorMatrix type="matrix" values="1 0 0 0 0  0 1 0 0 0  0 0 1 0 0  0 0 0 0.03 0"/>
    </filter>
    <marker id="arrow" markerWidth="10" markerHeight="10" refX="9" refY="5" orient="auto">
      <path d="M0 0L10 5L0 10Z" fill="#5f7a61"/>
    </marker>
  </defs>

  <rect width="1400" height="900" fill="#f5f0e6"/>
  <rect width="1400" height="900" fill="#ffffff" opacity="0.18" filter="url(#paper)"/>

  <rect x="72" y="68" width="152" height="46" rx="23" fill="#d66b2d"/>
  <text x="112" y="98" class="label" fill="#fffaf3">漫画 2</text>
  <text x="90" y="176" class="title">Prompt、Skill、Plugin</text>
  <text x="90" y="232" class="subtitle">三种东西不是一个层级，而是三种不同的做事方式</text>

  <g transform="rotate(-5 1154 154)">
    <rect x="1042" y="106" width="262" height="106" rx="18" fill="#fff9f1" stroke="#3b2f2f" stroke-width="4"/>
    <text x="1076" y="156" class="label">扫一眼就懂差别</text>
    <text x="1076" y="190" class="body">不需要先学黑话</text>
  </g>

  <g filter="url(#shadow)">
    <rect x="84" y="304" width="336" height="434" rx="30" fill="#fff9f1" stroke="#e2cda8" stroke-width="4"/>
    <rect x="532" y="260" width="336" height="520" rx="30" fill="#fff9f1" stroke="#e2cda8" stroke-width="4"/>
    <rect x="980" y="304" width="336" height="434" rx="30" fill="#fff9f1" stroke="#e2cda8" stroke-width="4"/>
  </g>

  <rect x="118" y="336" width="268" height="62" rx="18" fill="#f2c14e"/>
  <text x="206" y="376" class="head">Prompt</text>
  <rect x="566" y="294" width="268" height="70" rx="20" fill="#d66b2d"/>
  <text x="676" y="340" class="head" fill="#fffaf3">Skill</text>
  <rect x="1014" y="336" width="268" height="62" rx="18" fill="#b8d4c2"/>
  <text x="1102" y="376" class="head">Plugin</text>

  <g>
    <rect x="152" y="434" width="200" height="122" rx="18" fill="#fff4dc" stroke="#c69222" stroke-width="4"/>
    <text x="178" y="478" class="label">“帮我写个标题”</text>
    <text x="178" y="514" class="body">“整理一下这页内容”</text>
    <text x="152" y="618" class="label">临时吩咐</text>
    <text x="152" y="654" class="body">灵活，但每次都要重说</text>
    <text x="152" y="688" class="body">像一句临时口头交代</text>
  </g>

  <g>
    <rect x="604" y="410" width="194" height="248" rx="22" fill="#fff4dc" stroke="#c7881f" stroke-width="4"/>
    <rect x="630" y="442" width="140" height="22" rx="11" fill="#d66b2d"/>
    <rect x="630" y="484" width="132" height="15" rx="8" fill="#5f7a61"/>
    <rect x="630" y="512" width="154" height="15" rx="8" fill="#5f7a61"/>
    <rect x="630" y="540" width="118" height="15" rx="8" fill="#5f7a61"/>
    <rect x="630" y="584" width="144" height="42" rx="13" fill="#3b2f2f"/>
    <text x="646" y="457" class="label" fill="#fffaf3">SKILL.md</text>
    <text x="640" y="494" class="body">先核验来源</text>
    <text x="640" y="522" class="body">再搭结构</text>
    <text x="640" y="550" class="body">最后对齐格式</text>
    <text x="650" y="612" class="body" fill="#fffaf3">可复用做法</text>
    <text x="572" y="700" class="label">工作手册</text>
    <text x="572" y="736" class="body">知道该怎么做，也知道怎么查漏</text>
  </g>

  <g>
    <rect x="1016" y="430" width="264" height="198" rx="28" fill="#eff8f4" stroke="#5f7a61" stroke-width="4"/>
    <rect x="1046" y="464" width="206" height="28" rx="14" fill="#b8d4c2"/>
    <rect x="1046" y="514" width="102" height="78" rx="18" fill="#f2c14e"/>
    <rect x="1164" y="514" width="88" height="78" rx="18" fill="#f0bb62"/>
    <text x="1084" y="482" class="label">装好的工具包</text>
    <text x="1070" y="560" class="body">skill</text>
    <text x="1182" y="560" class="body">app</text>
    <text x="1018" y="682" class="label">装好的工具包</text>
    <text x="1018" y="718" class="body">把手册和工具一起打包</text>
  </g>

  <path d="M420 514H512" stroke="#5f7a61" stroke-width="8" stroke-linecap="round" marker-end="url(#arrow)"/>
  <path d="M868 514H960" stroke="#5f7a61" stroke-width="8" stroke-linecap="round" marker-end="url(#arrow)"/>

  <g>
    <ellipse cx="486" cy="630" rx="54" ry="42" fill="#a27d64"/>
    <ellipse cx="560" cy="622" rx="54" ry="42" fill="#a27d64"/>
    <ellipse cx="526" cy="694" rx="108" ry="84" fill="#9f7a62"/>
    <ellipse cx="526" cy="706" rx="78" ry="60" fill="#f2d6ae"/>
    <circle cx="492" cy="674" r="10" fill="#2f333b"/>
    <circle cx="564" cy="672" r="10" fill="#2f333b"/>
    <rect x="502" y="684" width="16" height="26" rx="7" fill="#fff9f1"/>
    <rect x="534" y="684" width="16" height="26" rx="7" fill="#fff9f1"/>
    <path d="M512 718c14 14 28 16 40 0" fill="none" stroke="#3b2f2f" stroke-width="6" stroke-linecap="round"/>
    <path d="M468 596c18-28 42-38 64-30-18 20-24 38-22 60-18-2-30-10-42-30z" fill="#8f6d55"/>
    <path d="M568 598c22-22 44-28 62-18-18 16-28 34-30 54-12-6-20-16-32-36z" fill="#8f6d55"/>
    <rect x="414" y="612" width="94" height="58" rx="16" fill="#f2c14e" stroke="#c69222" stroke-width="4"/>
    <rect x="576" y="614" width="104" height="78" rx="18" fill="#b8d4c2" stroke="#5f7a61" stroke-width="4"/>
    <text x="434" y="648" class="body">便签</text>
    <text x="604" y="660" class="body">工具包</text>
  </g>

  <g>
    <rect x="188" y="784" width="214" height="46" rx="23" fill="#f2c14e"/>
    <text x="228" y="815" class="cap">Prompt = 临时吩咐</text>
    <rect x="496" y="784" width="214" height="46" rx="23" fill="#d66b2d"/>
    <text x="548" y="815" class="cap">Skill = 工作手册</text>
    <rect x="804" y="784" width="246" height="46" rx="23" fill="#5f7a61"/>
    <text x="856" y="815" class="cap">Plugin = 装好的工具包</text>
  </g>
</svg>